<?xml version="1.0" encoding="UTF-8"?>
<!DOCTYPE svg PUBLIC "-//W3C//DTD SVG 1.1//EN" "http://www.w3.org/Graphics/SVG/1.1/DTD/svg11.dtd">
<svg xmlns="http://www.w3.org/2000/svg" version="1.1" width="399px" height="136px" style="shape-rendering:geometricPrecision; text-rendering:geometricPrecision; image-rendering:optimizeQuality; fill-rule:evenodd; clip-rule:evenodd" xmlns:xlink="http://www.w3.org/1999/xlink">
<g><path style="opacity:1" fill="#9aa85c" d="M 344.5,20.5 C 344.259,22.8984 344.926,24.8984 346.5,26.5C 347.757,27.6226 347.424,28.2893 345.5,28.5C 344.5,28.5 343.5,28.5 342.5,28.5C 341.629,25.8877 340.963,23.221 340.5,20.5C 341.833,20.5 343.167,20.5 344.5,20.5 Z"/></g>
<g><path style="opacity:1" fill="#f5f7d9" d="M 363.5,20.5 C 363.5,28.5 363.5,36.5 363.5,44.5C 360.833,44.5 358.167,44.5 355.5,44.5C 355.167,44.5 354.833,44.5 354.5,44.5C 356.948,43.5269 359.615,43.1936 362.5,43.5C 362.175,35.6484 362.508,27.9818 363.5,20.5 Z"/></g>
<g><path style="opacity:1" fill="#839943" d="M 363.5,20.5 C 364.5,20.5 365.5,20.5 366.5,20.5C 366.5,23.8333 366.5,27.1667 366.5,30.5C 371.294,29.9031 375.627,30.5698 379.5,32.5C 375.5,32.5 371.5,32.5 367.5,32.5C 366.517,36.2984 366.183,40.2984 366.5,44.5C 370.167,44.5 373.833,44.5 377.5,44.5C 377.5,51.5 377.5,58.5 377.5,65.5C 376.167,65.5 374.833,65.5 373.5,65.5C 373.5,64.5 373.5,63.5 373.5,62.5C 368.5,62.5 363.5,62.5 358.5,62.5C 358.5,63.5 358.5,64.5 358.5,65.5C 357.5,65.5 356.5,65.5 355.5,65.5C 355.5,58.5 355.5,51.5 355.5,44.5C 358.167,44.5 360.833,44.5 363.5,44.5C 363.5,36.5 363.5,28.5 363.5,20.5 Z M 358.5,46.5 C 363.5,46.5 368.5,46.5 373.5,46.5C 373.5,50.8333 373.5,55.1667 373.5,59.5C 368.5,59.5 363.5,59.5 358.5,59.5C 358.5,55.1667 358.5,50.8333 358.5,46.5 Z"/></g>
<g><path style="opacity:1" fill="#87993f" d="M 199.5,21.5 C 198.439,24.5107 197.273,27.5107 196,30.5C 195.5,42.1619 195.333,53.8286 195.5,65.5C 194.5,65.5 193.5,65.5 192.5,65.5C 192.666,56.8269 192.5,48.1603 192,39.5C 190.906,41.0779 190.072,42.7446 189.5,44.5C 188.503,44.5299 187.836,44.0299 187.5,43C 187.989,41.8615 188.322,40.6948 188.5,39.5C 188.992,37.1815 189.992,35.1815 191.5,33.5C 192.79,32.9423 193.623,31.9423 194,30.5C 195.43,27.6473 196.263,24.6473 196.5,21.5C 197.5,21.5 198.5,21.5 199.5,21.5 Z"/></g>
<g><path style="opacity:1" fill="#95a65d" d="M 211.5,20.5 C 211.5,21.5 211.5,22.5 211.5,23.5C 215.634,24.4849 219.968,24.8182 224.5,24.5C 224.256,27.2626 222.923,29.4293 220.5,31C 223.817,31.4983 227.15,31.665 230.5,31.5C 230.5,34.5 230.5,37.5 230.5,40.5C 225.5,40.5 220.5,40.5 215.5,40.5C 212.833,41.5 212.833,42.5 215.5,43.5C 216.167,43.5 216.5,43.8333 216.5,44.5C 217.053,46.5518 218.053,46.8852 219.5,45.5C 222.122,43.3565 225.122,42.0231 228.5,41.5C 228.5,42.5 228.5,43.5 228.5,44.5C 227.486,45.6737 226.153,46.3404 224.5,46.5C 223.322,48.3379 223.655,50.0045 225.5,51.5C 226.338,51.8417 226.672,52.5084 226.5,53.5C 226.427,55.0269 227.094,56.0269 228.5,56.5C 229.167,56.5 229.5,56.8333 229.5,57.5C 231.138,58.7046 231.471,60.0379 230.5,61.5C 228.395,61.8607 226.562,60.8607 225,58.5C 223.295,56.4234 222.128,54.09 221.5,51.5C 221.013,50.5266 220.513,49.5266 220,48.5C 219.728,53.5488 219.228,58.5488 218.5,63.5C 215.481,65.3371 212.148,65.8371 208.5,65C 207.663,63.9887 207.33,62.8221 207.5,61.5C 213.938,63.2163 216.772,60.883 216,54.5C 211.067,59.3845 205.233,62.2179 198.5,63C 198.043,62.586 197.709,62.086 197.5,61.5C 204.149,58.6841 210.149,54.8508 215.5,50C 214.906,49.5357 214.239,49.369 213.5,49.5C 211.973,49.427 210.973,50.0937 210.5,51.5C 207.782,54.1925 204.449,55.8592 200.5,56.5C 199,56.5472 198,55.8805 197.5,54.5C 202.39,52.5638 206.724,49.8971 210.5,46.5C 206.577,48.1994 202.577,49.3661 198.5,50C 197.167,49 197.167,48 198.5,47C 202.779,45.5272 206.779,43.5272 210.5,41C 207.518,40.502 204.518,40.3354 201.5,40.5C 201.5,38.5 201.5,36.5 201.5,34.5C 199.027,34.9118 197.694,33.9118 197.5,31.5C 201.935,28.9003 205.602,25.4003 208.5,21C 209.448,20.5172 210.448,20.3505 211.5,20.5 Z M 209.5,26.5 C 212.518,26.3354 215.518,26.502 218.5,27C 217.169,30.8237 214.503,32.3237 210.5,31.5C 208.833,31.3333 207.167,31.1667 205.5,31C 207.041,29.6288 208.375,28.1288 209.5,26.5 Z M 206.5,33.5 C 208.833,33.5 211.167,33.5 213.5,33.5C 213.714,35.1439 213.38,36.6439 212.5,38C 210.527,38.4955 208.527,38.6621 206.5,38.5C 206.5,36.8333 206.5,35.1667 206.5,33.5 Z M 218.5,33.5 C 220.833,33.5 223.167,33.5 225.5,33.5C 225.5,35.1667 225.5,36.8333 225.5,38.5C 222.833,38.5 220.167,38.5 217.5,38.5C 218.038,36.8828 218.371,35.2161 218.5,33.5 Z M 210.5,46.5 C 210.783,45.7109 211.283,45.0442 212,44.5C 212.528,45.816 212.028,46.4827 210.5,46.5 Z"/></g>
<g><path style="opacity:1" fill="#c1e2e4" d="M 211.5,20.5 C 213.985,21.2601 213.985,22.2601 211.5,23.5C 211.5,22.5 211.5,21.5 211.5,20.5 Z"/></g>
<g><path style="opacity:1" fill="#859842" d="M 295.5,20.5 C 296.167,20.5 296.833,20.5 297.5,20.5C 297.611,21.1174 297.944,21.6174 298.5,22C 297.204,24.7612 296.037,27.5945 295,30.5C 294.5,42.1619 294.333,53.8286 294.5,65.5C 293.5,65.5 292.5,65.5 291.5,65.5C 291.831,57.1401 291.498,48.8068 290.5,40.5C 289.702,40.9569 289.369,41.6236 289.5,42.5C 288.094,42.9731 287.427,43.9731 287.5,45.5C 286.5,45.5 285.5,45.5 284.5,45.5C 285.685,40.796 287.685,36.4626 290.5,32.5C 293.707,29.2321 295.373,25.2321 295.5,20.5 Z"/></g>
<g><path style="opacity:1" fill="#7f9847" d="M 307.5,20.5 C 308.5,20.5 309.5,20.5 310.5,20.5C 309.991,23.1922 308.991,25.6922 307.5,28C 315.565,27.8614 323.232,28.6947 330.5,30.5C 325.167,30.5 319.833,30.5 314.5,30.5C 313.523,33.2869 313.19,36.2869 313.5,39.5C 318.944,38.8917 323.944,39.5583 328.5,41.5C 323.833,41.5 319.167,41.5 314.5,41.5C 313.521,44.6248 313.187,47.9581 313.5,51.5C 319.271,50.8872 324.604,51.5539 329.5,53.5C 324.5,53.5 319.5,53.5 314.5,53.5C 314.5,57.5 314.5,61.5 314.5,65.5C 313.5,65.5 312.5,65.5 311.5,65.5C 312.145,53.4521 311.478,41.7854 309.5,30.5C 308.833,30.5 308.167,30.5 307.5,30.5C 305.75,31.6594 304.75,33.326 304.5,35.5C 303.094,35.9731 302.427,36.9731 302.5,38.5C 301.395,39.6005 300.062,40.2671 298.5,40.5C 297.427,39.7494 297.26,38.7494 298,37.5C 300.44,34.2722 302.606,30.9389 304.5,27.5C 306.834,25.8243 307.834,23.491 307.5,20.5 Z"/></g>
<g><path style="opacity:1" fill="#abd8e3" d="M 344.5,20.5 C 345.738,22.2143 346.405,24.2143 346.5,26.5C 344.926,24.8984 344.259,22.8984 344.5,20.5 Z"/></g>
<g><path style="opacity:1" fill="#869d4e" d="M 163.5,22.5 C 163.5,26.8333 163.5,31.1667 163.5,35.5C 160.167,35.5 156.833,35.5 153.5,35.5C 152.5,35.5 151.5,35.5 150.5,35.5C 146.833,35.5 143.167,35.5 139.5,35.5C 139.5,31.1667 139.5,26.8333 139.5,22.5C 147.5,22.5 155.5,22.5 163.5,22.5 Z M 144.5,24.5 C 149.5,24.5 154.5,24.5 159.5,24.5C 159.5,25.8333 159.5,27.1667 159.5,28.5C 154.5,28.5 149.5,28.5 144.5,28.5C 144.5,27.1667 144.5,25.8333 144.5,24.5 Z M 144.5,30.5 C 149.5,30.5 154.5,30.5 159.5,30.5C 159.5,31.5 159.5,32.5 159.5,33.5C 154.5,33.5 149.5,33.5 144.5,33.5C 144.5,32.5 144.5,31.5 144.5,30.5 Z"/></g>
<g><path style="opacity:1" fill="#c2effd" d="M 163.5,22.5 C 164.167,25.8333 164.833,29.1667 165.5,32.5C 165.5,32.8333 165.5,33.1667 165.5,33.5C 164.833,34.1667 164.167,34.8333 163.5,35.5C 163.5,31.1667 163.5,26.8333 163.5,22.5 Z"/></g>
<g><path style="opacity:1" fill="#9cab68" d="M 180.5,23.5 C 179.094,23.9731 178.427,24.9731 178.5,26.5C 177.5,28.1667 176.167,29.5 174.5,30.5C 172.973,30.427 171.973,31.0937 171.5,32.5C 169.652,35.4785 167.652,35.8118 165.5,33.5C 165.5,33.1667 165.5,32.8333 165.5,32.5C 169.929,29.9065 173.596,26.4065 176.5,22C 177.833,21.3333 179.167,21.3333 180.5,22C 181.738,22.69 181.738,23.19 180.5,23.5 Z"/></g>
<g><path style="opacity:1" fill="#95a863" d="M 35.5,25.5 C 38.6154,29.7475 39.2821,34.4142 37.5,39.5C 36.1667,40.1667 35.1667,41.1667 34.5,42.5C 34.0825,43.2216 33.4158,43.7216 32.5,44C 29.1832,44.4983 25.8499,44.665 22.5,44.5C 22.5,49.5 22.5,54.5 22.5,59.5C 20.8333,59.5 19.1667,59.5 17.5,59.5C 17.5,47.5 17.5,35.5 17.5,23.5C 22.8437,23.334 28.1771,23.5006 33.5,24C 34.4158,24.2784 35.0825,24.7784 35.5,25.5 Z M 33.5,28.5 C 35.4453,31.3625 35.7786,34.3625 34.5,37.5C 31.5234,41.2632 27.5234,42.9299 22.5,42.5C 22.5,36.8333 22.5,31.1667 22.5,25.5C 26.6474,25.1257 30.3141,26.1257 33.5,28.5 Z"/></g>
<g><path style="opacity:1" fill="#829843" d="M 61.5,23.5 C 65.2967,35.5566 69.2967,47.5566 73.5,59.5C 72.8333,59.5 72.1667,59.5 71.5,59.5C 70.0722,55.65 68.4056,51.9834 66.5,48.5C 61.8333,48.5 57.1667,48.5 52.5,48.5C 50.8958,49.287 50.2291,50.6203 50.5,52.5C 48.9348,54.5093 47.9348,56.8427 47.5,59.5C 42.9851,59.4833 42.3184,57.8166 45.5,54.5C 48.6525,50.0594 50.6525,45.0594 51.5,39.5C 52.8657,34.427 54.5324,29.427 56.5,24.5C 58.0453,23.5481 59.712,23.2148 61.5,23.5 Z M 59.5,31.5 C 61.4503,36.4018 63.117,41.4018 64.5,46.5C 60.8333,46.5 57.1667,46.5 53.5,46.5C 55.1277,41.2696 57.1277,36.2696 59.5,31.5 Z"/></g>
<g><path style="opacity:1" fill="#93a55d" d="M 86.5,30.5 C 83.5091,33.6342 82.1757,37.4675 82.5,42C 82.6667,43.8333 82.8333,45.6667 83,47.5C 83.2004,49.3197 84.0337,50.653 85.5,51.5C 85.5,53.5 86.5,54.5 88.5,54.5C 91.1623,55.8774 93.9957,56.8774 97,57.5C 100.094,56.4345 103.26,55.7678 106.5,55.5C 106.64,57.1238 105.973,58.2904 104.5,59C 97.9159,60.1411 91.5826,59.4744 85.5,57C 83.5359,55.549 82.2026,53.7157 81.5,51.5C 79.8874,46.9932 79.2207,42.3266 79.5,37.5C 80.2963,31.8529 83.2963,27.6862 88.5,25C 94.0802,23.4826 99.7469,23.1492 105.5,24C 106.337,25.0113 106.67,26.1779 106.5,27.5C 99.2702,24.6394 92.6035,25.6394 86.5,30.5 Z"/></g>
<g><path style="opacity:1" fill="#91a661" d="M 131.5,24.5 C 131.5,25.8333 130.833,26.5 129.5,26.5C 125.459,25.0159 121.793,25.6826 118.5,28.5C 117.007,29.3121 116.34,30.6455 116.5,32.5C 116.34,34.3545 117.007,35.6879 118.5,36.5C 122.439,38.4462 126.106,40.7795 129.5,43.5C 130.167,44.8333 131.167,45.8333 132.5,46.5C 132.5,49.1667 132.5,51.8333 132.5,54.5C 131.094,54.9731 130.427,55.9731 130.5,57.5C 127.814,58.9908 124.814,59.6575 121.5,59.5C 118.467,59.331 115.467,58.9977 112.5,58.5C 112.5,57.1667 112.5,55.8333 112.5,54.5C 115.573,55.199 118.573,56.199 121.5,57.5C 123.071,56.6906 124.738,56.3573 126.5,56.5C 129.138,55.7585 130.471,53.9251 130.5,51C 130.37,47.5448 128.704,45.3781 125.5,44.5C 122.296,43.6167 119.629,41.9501 117.5,39.5C 114.31,35.6714 113.643,31.3381 115.5,26.5C 116.058,25.2101 117.058,24.3768 118.5,24C 123.02,23.1864 127.354,23.353 131.5,24.5 Z"/></g>
<g><path style="opacity:1" fill="#dcc56d" d="M 307.5,20.5 C 307.834,23.491 306.834,25.8243 304.5,27.5C 305.264,24.9823 306.264,22.649 307.5,20.5 Z"/></g>
<g><path style="opacity:1" fill="#b6dee0" d="M 180.5,23.5 C 180.573,25.0269 179.906,26.0269 178.5,26.5C 178.427,24.9731 179.094,23.9731 180.5,23.5 Z"/></g>
<g><path style="opacity:1" fill="#d8c97d" d="M 199.5,21.5 C 198.5,21.5 197.5,21.5 196.5,21.5C 196.263,24.6473 195.43,27.6473 194,30.5C 193.623,31.9423 192.79,32.9423 191.5,33.5C 193.234,29.2979 194.567,24.9645 195.5,20.5C 197.099,20.2322 198.432,20.5655 199.5,21.5 Z"/></g>
<g><path style="opacity:1" fill="#aaba88" d="M 278.5,27.5 C 272.369,26.17 265.869,25.5034 259,25.5C 252.131,25.5034 245.631,26.17 239.5,27.5C 238.596,26.791 238.263,25.791 238.5,24.5C 252.167,24.5 265.833,24.5 279.5,24.5C 279.737,25.791 279.404,26.791 278.5,27.5 Z"/></g>
<g><path style="opacity:1" fill="#76933b" d="M 278.5,27.5 C 272.833,27.5 267.167,27.5 261.5,27.5C 260.506,37.9869 260.172,48.6536 260.5,59.5C 267.584,58.8745 274.25,59.5411 280.5,61.5C 265.833,61.5 251.167,61.5 236.5,61.5C 243.087,59.5388 250.087,58.8721 257.5,59.5C 257.828,48.6536 257.494,37.9869 256.5,27.5C 250.833,27.5 245.167,27.5 239.5,27.5C 245.631,26.17 252.131,25.5034 259,25.5C 265.869,25.5034 272.369,26.17 278.5,27.5 Z"/></g>
<g><path style="opacity:1" fill="#dbeeef" d="M 131.5,24.5 C 132.404,25.209 132.737,26.209 132.5,27.5C 131.209,27.7373 130.209,27.404 129.5,26.5C 130.833,26.5 131.5,25.8333 131.5,24.5 Z"/></g>
<g><path style="opacity:1" fill="#c2d6c7" d="M 310.5,20.5 C 311.431,22.6457 311.097,24.8123 309.5,27C 316.826,27.4997 324.159,27.6663 331.5,27.5C 331.737,28.791 331.404,29.791 330.5,30.5C 323.232,28.6947 315.565,27.8614 307.5,28C 308.991,25.6922 309.991,23.1922 310.5,20.5 Z"/></g>
<g><path style="opacity:1" fill="#d5c26b" d="M 295.5,20.5 C 295.373,25.2321 293.707,29.2321 290.5,32.5C 291.796,28.2613 293.462,24.2613 295.5,20.5 Z"/></g>
<g><path style="opacity:1" fill="#e1cc76" d="M 59.5,28.5 C 61.7131,34.2904 64.0465,40.1237 66.5,46C 65.9056,46.4643 65.2389,46.631 64.5,46.5C 63.117,41.4018 61.4503,36.4018 59.5,31.5C 59.5,30.5 59.5,29.5 59.5,28.5 Z"/></g>
<g><path style="opacity:1" fill="#e9ede0" d="M 342.5,28.5 C 343.5,28.5 344.5,28.5 345.5,28.5C 348.167,29.1667 350.833,29.8333 353.5,30.5C 347.167,30.5 340.833,30.5 334.5,30.5C 337.167,29.8333 339.833,29.1667 342.5,28.5 Z"/></g>
<g><path style="opacity:1" fill="#b3cec3" d="M 366.5,20.5 C 367.477,23.2869 367.81,26.2869 367.5,29.5C 371.833,29.5 376.167,29.5 380.5,29.5C 380.737,30.791 380.404,31.791 379.5,32.5C 375.627,30.5698 371.294,29.9031 366.5,30.5C 366.5,27.1667 366.5,23.8333 366.5,20.5 Z"/></g>
<g><path style="opacity:1" fill="#99cad4" d="M 118.5,28.5 C 117.167,31.1667 117.167,33.8333 118.5,36.5C 117.007,35.6879 116.34,34.3545 116.5,32.5C 116.34,30.6455 117.007,29.3121 118.5,28.5 Z"/></g>
<g><path style="opacity:1" fill="#c4b568" d="M 309.5,30.5 C 311.478,41.7854 312.145,53.4521 311.5,65.5C 309.522,54.2146 308.855,42.5479 309.5,30.5 Z"/></g>
<g><path style="opacity:1" fill="#7f9949" d="M 334.5,30.5 C 340.833,30.5 347.167,30.5 353.5,30.5C 354.043,30.56 354.376,30.8933 354.5,31.5C 347.5,32.8333 340.5,32.8333 333.5,31.5C 333.624,30.8933 333.957,30.56 334.5,30.5 Z"/></g>
<g><path style="opacity:1" fill="#9ecad0" d="M 35.5,25.5 C 36.4959,25.4142 37.3292,25.7476 38,26.5C 41.3703,31.1227 41.2037,35.4561 37.5,39.5C 39.2821,34.4142 38.6154,29.7475 35.5,25.5 Z"/></g>
<g><path style="opacity:1" fill="#d2c475" d="M 115.5,26.5 C 113.643,31.3381 114.31,35.6714 117.5,39.5C 114.147,38.4876 112.48,36.1542 112.5,32.5C 112.467,29.8984 113.467,27.8984 115.5,26.5 Z"/></g>
<g><path style="opacity:1" fill="#c7e4e7" d="M 174.5,30.5 C 174.027,31.9063 173.027,32.573 171.5,32.5C 171.973,31.0937 172.973,30.427 174.5,30.5 Z"/></g>
<g><path style="opacity:1" fill="#a7d9f5" d="M 297.5,20.5 C 298.497,20.4701 299.164,20.9701 299.5,22C 298.472,25.2211 297.306,28.3877 296,31.5C 295.831,43.0074 295.331,54.3407 294.5,65.5C 294.333,53.8286 294.5,42.1619 295,30.5C 296.037,27.5945 297.204,24.7612 298.5,22C 297.944,21.6174 297.611,21.1174 297.5,20.5 Z"/></g>
<g><path style="opacity:1" fill="#aed9e3" d="M 307.5,30.5 C 307.25,32.674 306.25,34.3406 304.5,35.5C 304.75,33.326 305.75,31.6594 307.5,30.5 Z"/></g>
<g><path style="opacity:1" fill="#dfcd78" d="M 33.5,28.5 C 35.5864,29.1485 36.5864,30.6485 36.5,33C 36.4753,34.876 35.8086,36.376 34.5,37.5C 35.7786,34.3625 35.4453,31.3625 33.5,28.5 Z"/></g>
<g><path style="opacity:1" fill="#a6d3dc" d="M 61.5,23.5 C 66.2419,35.2111 70.9086,47.0444 75.5,59C 74.9056,59.4643 74.2389,59.631 73.5,59.5C 69.2967,47.5566 65.2967,35.5566 61.5,23.5 Z"/></g>
<g><path style="opacity:1" fill="#90c9db" d="M 199.5,21.5 C 200.043,21.56 200.376,21.8933 200.5,22.5C 199.295,25.4496 198.295,28.4496 197.5,31.5C 196.833,42.8333 196.167,54.1667 195.5,65.5C 195.333,53.8286 195.5,42.1619 196,30.5C 197.273,27.5107 198.439,24.5107 199.5,21.5 Z"/></g>
<g><path style="opacity:1" fill="#c6d7c8" d="M 178.5,34.5 C 180.42,33.0595 182.087,33.3929 183.5,35.5C 183.145,36.5223 182.478,37.189 181.5,37.5C 181.5,36.5 181.5,35.5 181.5,34.5C 180.5,34.5 179.5,34.5 178.5,34.5 Z"/></g>
<g><path style="opacity:1" fill="#c1e0df" d="M 206.5,33.5 C 206.5,35.1667 206.5,36.8333 206.5,38.5C 205.351,38.2089 204.684,37.3756 204.5,36C 204.684,34.6244 205.351,33.7911 206.5,33.5 Z"/></g>
<g><path style="opacity:1" fill="#a6d4de" d="M 59.5,28.5 C 59.5,29.5 59.5,30.5 59.5,31.5C 57.1277,36.2696 55.1277,41.2696 53.5,46.5C 54.0345,40.2287 56.0345,34.2287 59.5,28.5 Z"/></g>
<g><path style="opacity:1" fill="#94a763" d="M 178.5,34.5 C 179.5,34.5 180.5,34.5 181.5,34.5C 181.5,35.5 181.5,36.5 181.5,37.5C 178.704,40.7974 175.704,43.9641 172.5,47C 170.09,48.8674 167.756,48.8674 165.5,47C 170.336,43.3305 174.669,39.1638 178.5,34.5 Z"/></g>
<g><path style="opacity:1" fill="#c5dcd5" d="M 150.5,36.5 C 150.5,36.1667 150.5,35.8333 150.5,35.5C 151.5,35.5 152.5,35.5 153.5,35.5C 154.234,36.7079 154.567,38.0413 154.5,39.5C 153.764,37.7706 152.43,36.7706 150.5,36.5 Z"/></g>
<g><path style="opacity:1" fill="#809944" d="M 150.5,36.5 C 152.43,36.7706 153.764,37.7706 154.5,39.5C 158.884,39.1744 163.217,39.5078 167.5,40.5C 157.5,41.8333 147.5,41.8333 137.5,40.5C 141.796,39.6725 146.129,39.1725 150.5,39C 149.226,38.0228 149.226,37.1894 150.5,36.5 Z"/></g>
<g><path style="opacity:1" fill="#90c4d3" d="M 218.5,33.5 C 218.371,35.2161 218.038,36.8828 217.5,38.5C 216.322,36.6621 216.655,34.9955 218.5,33.5 Z"/></g>
<g><path style="opacity:1" fill="#a5d3d9" d="M 304.5,35.5 C 304.573,37.0269 303.906,38.0269 302.5,38.5C 302.427,36.9731 303.094,35.9731 304.5,35.5 Z"/></g>
<g><path style="opacity:1" fill="#819742" d="M 336.5,36.5 C 338.274,37.3696 339.607,38.703 340.5,40.5C 340.942,44.1545 341.276,47.8212 341.5,51.5C 340.5,51.5 339.5,51.5 338.5,51.5C 338.5,50.5 338.5,49.5 338.5,48.5C 338.666,44.3258 338,40.3258 336.5,36.5 Z"/></g>
<g><path style="opacity:1" fill="#a9b269" d="M 351.5,39.5 C 349.091,44.4913 347.424,49.8246 346.5,55.5C 347.791,55.7373 348.791,55.404 349.5,54.5C 350.833,54.5 352.167,54.5 353.5,54.5C 353.187,50.9581 353.521,47.6248 354.5,44.5C 354.833,44.5 355.167,44.5 355.5,44.5C 355.5,51.5 355.5,58.5 355.5,65.5C 353.631,63.3647 352.964,60.6981 353.5,57.5C 346.878,58.8225 340.211,59.8225 333.5,60.5C 333.5,59.5 333.5,58.5 333.5,57.5C 336.609,57.3447 339.609,56.6781 342.5,55.5C 343.246,54.2638 343.579,52.9305 343.5,51.5C 345.435,46.4271 346.768,41.0937 347.5,35.5C 351.151,35.2292 352.485,36.5626 351.5,39.5 Z"/></g>
<g><path style="opacity:1" fill="#bbd4c8" d="M 314.5,30.5 C 314.5,33.1667 314.5,35.8333 314.5,38.5C 319.5,38.5 324.5,38.5 329.5,38.5C 329.737,39.791 329.404,40.791 328.5,41.5C 323.944,39.5583 318.944,38.8917 313.5,39.5C 313.19,36.2869 313.523,33.2869 314.5,30.5 Z"/></g>
<g><path style="opacity:1" fill="#d6c573" d="M 336.5,36.5 C 338,40.3258 338.666,44.3258 338.5,48.5C 337.199,45.2089 336.199,41.7089 335.5,38C 335.57,37.2352 335.903,36.7352 336.5,36.5 Z"/></g>
<g><path style="opacity:1" fill="#c8e1e0" d="M 302.5,38.5 C 302.042,41.3091 300.709,41.9758 298.5,40.5C 300.062,40.2671 301.395,39.6005 302.5,38.5 Z"/></g>
<g><path style="opacity:1" fill="#9cc6c3" d="M 336.5,36.5 C 339.828,35.1495 341.161,36.4828 340.5,40.5C 339.607,38.703 338.274,37.3696 336.5,36.5 Z"/></g>
<g><path style="opacity:1" fill="#faeca9" d="M 291.5,65.5 C 290.833,57.8333 290.167,50.1667 289.5,42.5C 289.369,41.6236 289.702,40.9569 290.5,40.5C 291.498,48.8068 291.831,57.1401 291.5,65.5 Z"/></g>
<g><path style="opacity:1" fill="#c0e0dd" d="M 37.5,39.5 C 37.5,41.5 36.5,42.5 34.5,42.5C 35.1667,41.1667 36.1667,40.1667 37.5,39.5 Z"/></g>
<g><path style="opacity:1" fill="#e1d18e" d="M 188.5,39.5 C 188.322,40.6948 187.989,41.8615 187.5,43C 187.836,44.0299 188.503,44.5299 189.5,44.5C 187.824,45.7103 186.49,45.2103 185.5,43C 186.163,41.4815 187.163,40.3149 188.5,39.5 Z"/></g>
<g><path style="opacity:1" fill="#f1f8e0" d="M 192.5,65.5 C 191.671,58.3448 191.171,51.0115 191,43.5C 190.617,44.056 190.117,44.3893 189.5,44.5C 190.072,42.7446 190.906,41.0779 192,39.5C 192.5,48.1603 192.666,56.8269 192.5,65.5 Z"/></g>
<g><path style="opacity:1" fill="#a9d0d4" d="M 215.5,40.5 C 215.5,41.5 215.5,42.5 215.5,43.5C 212.833,42.5 212.833,41.5 215.5,40.5 Z"/></g>
<g><path style="opacity:1" fill="#d4c26a" d="M 51.5,39.5 C 50.6525,45.0594 48.6525,50.0594 45.5,54.5C 47.129,49.2647 49.129,44.2647 51.5,39.5 Z"/></g>
<g><path style="opacity:1" fill="#a9d0d3" d="M 228.5,41.5 C 231.167,42.5 231.167,43.5 228.5,44.5C 228.5,43.5 228.5,42.5 228.5,41.5 Z"/></g>
<g><path style="opacity:1" fill="#a2cdd2" d="M 351.5,39.5 C 350.661,43.8552 349.661,48.1885 348.5,52.5C 348.543,53.4164 348.876,54.0831 349.5,54.5C 348.791,55.404 347.791,55.7373 346.5,55.5C 347.424,49.8246 349.091,44.4913 351.5,39.5 Z"/></g>
<g><path style="opacity:1" fill="#f8e79f" d="M 79.5,37.5 C 79.2207,42.3266 79.8874,46.9932 81.5,51.5C 80.0337,50.653 79.2004,49.3197 79,47.5C 78.1925,43.9733 78.3592,40.6399 79.5,37.5 Z"/></g>
<g><path style="opacity:1" fill="#b7dbe0" d="M 129.5,43.5 C 131.5,43.5 132.5,44.5 132.5,46.5C 131.167,45.8333 130.167,44.8333 129.5,43.5 Z"/></g>
<g><path style="opacity:1" fill="#b7dee6" d="M 289.5,42.5 C 289.573,44.0269 288.906,45.0269 287.5,45.5C 287.427,43.9731 288.094,42.9731 289.5,42.5 Z"/></g>
<g><path style="opacity:1" fill="#b4dee6" d="M 367.5,32.5 C 367.5,36.1667 367.5,39.8333 367.5,43.5C 371.167,43.5 374.833,43.5 378.5,43.5C 378.825,51.0191 378.492,58.3524 377.5,65.5C 377.5,58.5 377.5,51.5 377.5,44.5C 373.833,44.5 370.167,44.5 366.5,44.5C 366.183,40.2984 366.517,36.2984 367.5,32.5 Z"/></g>
<g><path style="opacity:1" fill="#8ca053" d="M 155.5,53.5 C 153.598,56.3373 152.931,59.6707 153.5,63.5C 153.389,64.1174 153.056,64.6174 152.5,65C 149.633,65.8007 146.966,65.6341 144.5,64.5C 146.844,64.0603 148.844,63.0603 150.5,61.5C 150.5,58.8333 150.5,56.1667 150.5,53.5C 147.167,53.5 143.833,53.5 140.5,53.5C 140.5,50.8333 140.5,48.1667 140.5,45.5C 148.167,45.5 155.833,45.5 163.5,45.5C 163.5,48.1667 163.5,50.8333 163.5,53.5C 160.833,53.5 158.167,53.5 155.5,53.5 Z M 145.5,47.5 C 149.833,47.5 154.167,47.5 158.5,47.5C 158.5,48.8333 158.5,50.1667 158.5,51.5C 154.167,51.5 149.833,51.5 145.5,51.5C 145.5,50.1667 145.5,48.8333 145.5,47.5 Z"/></g>
<g><path style="opacity:1" fill="#cde2d5" d="M 216.5,44.5 C 217.391,45.1098 218.391,45.4431 219.5,45.5C 218.053,46.8852 217.053,46.5518 216.5,44.5 Z"/></g>
<g><path style="opacity:1" fill="#a4d3e0" d="M 86.5,30.5 C 82.998,37.3505 82.6647,44.3505 85.5,51.5C 84.0337,50.653 83.2004,49.3197 83,47.5C 82.8333,45.6667 82.6667,43.8333 82.5,42C 82.1757,37.4675 83.5091,33.6342 86.5,30.5 Z"/></g>
<g><path style="opacity:1" fill="#a3d0d9" d="M 340.5,40.5 C 341.945,43.9365 342.945,47.6032 343.5,51.5C 342.833,51.5 342.167,51.5 341.5,51.5C 341.276,47.8212 340.942,44.1545 340.5,40.5 Z"/></g>
<g><path style="opacity:1" fill="#a1cbd0" d="M 132.5,46.5 C 135.167,49.1667 135.167,51.8333 132.5,54.5C 132.5,51.8333 132.5,49.1667 132.5,46.5 Z"/></g>
<g><path style="opacity:1" fill="#90a562" d="M 183.5,48.5 C 182.89,49.391 182.557,50.391 182.5,51.5C 179.833,54.8333 176.833,57.8333 173.5,60.5C 171.973,60.427 170.973,61.0937 170.5,62.5C 168.079,65.7819 165.412,66.1152 162.5,63.5C 163.243,62.8182 163.909,62.1515 164.5,61.5C 165.167,61.5 165.5,61.1667 165.5,60.5C 167.167,59.8333 168.833,59.1667 170.5,58.5C 174.5,56.5 177.5,53.5 179.5,49.5C 179.62,48.4138 180.287,47.7472 181.5,47.5C 182.416,47.5427 183.083,47.8761 183.5,48.5 Z"/></g>
<g><path style="opacity:1" fill="#b7dee6" d="M 183.5,48.5 C 184.715,49.779 184.382,50.779 182.5,51.5C 182.557,50.391 182.89,49.391 183.5,48.5 Z"/></g>
<g><path style="opacity:1" fill="#9dd1e3" d="M 224.5,46.5 C 225.038,48.1172 225.371,49.7839 225.5,51.5C 223.655,50.0045 223.322,48.3379 224.5,46.5 Z"/></g>
<g><path style="opacity:1" fill="#a8d7e3" d="M 52.5,48.5 C 52.3404,50.153 51.6737,51.4863 50.5,52.5C 50.2291,50.6203 50.8958,49.287 52.5,48.5 Z"/></g>
<g><path style="opacity:1" fill="#c8e9e7" d="M 213.5,49.5 C 213.027,50.9063 212.027,51.573 210.5,51.5C 210.973,50.0937 211.973,49.427 213.5,49.5 Z"/></g>
<g><path style="opacity:1" fill="#b9d2c8" d="M 314.5,41.5 C 314.5,44.5 314.5,47.5 314.5,50.5C 319.833,50.5 325.167,50.5 330.5,50.5C 330.737,51.791 330.404,52.791 329.5,53.5C 324.604,51.5539 319.271,50.8872 313.5,51.5C 313.187,47.9581 313.521,44.6248 314.5,41.5 Z"/></g>
<g><path style="opacity:1" fill="#a0bfbf" d="M 85.5,51.5 C 86.8333,52.1667 87.8333,53.1667 88.5,54.5C 86.5,54.5 85.5,53.5 85.5,51.5 Z"/></g>
<g><path style="opacity:1" fill="#c4e0de" d="M 155.5,53.5 C 155.263,54.791 155.596,55.791 156.5,56.5C 156.5,56.8333 156.5,57.1667 156.5,57.5C 155.797,59.6287 154.797,61.6287 153.5,63.5C 152.931,59.6707 153.598,56.3373 155.5,53.5 Z"/></g>
<g><path style="opacity:1" fill="#c7bd6a" d="M 179.5,49.5 C 177.5,53.5 174.5,56.5 170.5,58.5C 173.167,55.1667 176.167,52.1667 179.5,49.5 Z"/></g>
<g><path style="opacity:1" fill="#a6d3d9" d="M 221.5,51.5 C 220.418,53.3272 220.418,55.3272 221.5,57.5C 221.241,59.9872 220.241,61.9872 218.5,63.5C 219.228,58.5488 219.728,53.5488 220,48.5C 220.513,49.5266 221.013,50.5266 221.5,51.5 Z"/></g>
<g><path style="opacity:1" fill="#e9d27e" d="M 66.5,48.5 C 68.4056,51.9834 70.0722,55.65 71.5,59.5C 68.5506,56.59 66.8839,52.9233 66.5,48.5 Z"/></g>
<g><path style="opacity:1" fill="#ccc070" d="M 125.5,44.5 C 128.704,45.3781 130.37,47.5448 130.5,51C 130.471,53.9251 129.138,55.7585 126.5,56.5C 130.157,52.3672 129.823,48.3672 125.5,44.5 Z"/></g>
<g><path style="opacity:1" fill="#9dcdd9" d="M 50.5,52.5 C 50.4484,55.3462 49.4484,57.6796 47.5,59.5C 47.9348,56.8427 48.9348,54.5093 50.5,52.5 Z"/></g>
<g><path style="opacity:1" fill="#addad9" d="M 132.5,54.5 C 132.573,56.0269 131.906,57.0269 130.5,57.5C 130.427,55.9731 131.094,54.9731 132.5,54.5 Z"/></g>
<g><path style="opacity:1" fill="#94a55d" d="M 162.5,58.5 C 163.11,59.391 163.443,60.391 163.5,61.5C 160.386,61.4452 158.052,60.1119 156.5,57.5C 156.5,57.1667 156.5,56.8333 156.5,56.5C 159.08,54.9844 161.08,55.6511 162.5,58.5 Z"/></g>
<g><path style="opacity:1" fill="#93c4c7" d="M 226.5,53.5 C 227.906,53.9731 228.573,54.9731 228.5,56.5C 227.094,56.0269 226.427,55.0269 226.5,53.5 Z"/></g>
<g><path style="opacity:1" fill="#9aad74" d="M 143.5,62.5 C 141.365,63.9664 139.365,63.7998 137.5,62C 139.5,60 141.5,58 143.5,56C 145.403,55.2263 147.07,55.5596 148.5,57C 146.627,58.7038 144.96,60.5372 143.5,62.5 Z"/></g>
<g><path style="opacity:1" fill="#bcdbdc" d="M 229.5,57.5 C 233.808,58.6794 234.141,60.0127 230.5,61.5C 231.471,60.0379 231.138,58.7046 229.5,57.5 Z"/></g>
<g><path style="opacity:1" fill="#badddf" d="M 162.5,58.5 C 164.027,58.427 165.027,59.0937 165.5,60.5C 164.833,60.5 164.5,60.8333 164.5,61.5C 164.167,61.5 163.833,61.5 163.5,61.5C 163.443,60.391 163.11,59.391 162.5,58.5 Z"/></g>
<g><path style="opacity:1" fill="#cdc885" d="M 256.5,27.5 C 257.494,37.9869 257.828,48.6536 257.5,59.5C 250.087,58.8721 243.087,59.5388 236.5,61.5C 235.596,60.791 235.263,59.791 235.5,58.5C 242.5,58.5 249.5,58.5 256.5,58.5C 256.5,48.1667 256.5,37.8333 256.5,27.5 Z"/></g>
<g><path style="opacity:1" fill="#a8c5b5" d="M 261.5,27.5 C 261.5,37.8333 261.5,48.1667 261.5,58.5C 268.5,58.5 275.5,58.5 282.5,58.5C 282.715,60.1788 282.048,61.1788 280.5,61.5C 274.25,59.5411 267.584,58.8745 260.5,59.5C 260.172,48.6536 260.506,37.9869 261.5,27.5 Z"/></g>
<g><path style="opacity:1" fill="#c5dcd7" d="M 358.5,46.5 C 358.5,50.8333 358.5,55.1667 358.5,59.5C 363.5,59.5 368.5,59.5 373.5,59.5C 368.36,60.4881 363.026,60.8214 357.5,60.5C 357.181,55.6367 357.514,50.97 358.5,46.5 Z"/></g>
<g><path style="opacity:1" fill="#c3e5e7" d="M 173.5,60.5 C 173.027,61.9063 172.027,62.573 170.5,62.5C 170.973,61.0937 171.973,60.427 173.5,60.5 Z"/></g>
<g><path style="opacity:1" fill="#e4e4c3" d="M 150.5,61.5 C 148.844,63.0603 146.844,64.0603 144.5,64.5C 143.662,64.1583 143.328,63.4916 143.5,62.5C 145.95,62.702 148.283,62.3686 150.5,61.5 Z"/></g>
<g><path style="opacity:1" fill="#b1b1b7" d="M 142.5,84.5 C 143.833,84.5 145.167,84.5 146.5,84.5C 146.5,93.8333 146.5,103.167 146.5,112.5C 145.5,112.5 144.5,112.5 143.5,112.5C 143.64,110.876 142.973,109.71 141.5,109C 142.82,105.399 142.82,101.899 141.5,98.5C 142.383,93.8969 142.717,89.2303 142.5,84.5 Z"/></g>
<g><path style="opacity:1" fill="#bfbebe" d="M 196.5,84.5 C 198.167,84.5 199.833,84.5 201.5,84.5C 201.5,93.8333 201.5,103.167 201.5,112.5C 199.833,112.5 198.167,112.5 196.5,112.5C 196.5,103.167 196.5,93.8333 196.5,84.5 Z"/></g>
<g><path style="opacity:1" fill="#c2c1c1" d="M 151.5,84.5 C 153.716,84.2746 155.383,85.1079 156.5,87C 152.142,90.7271 150.476,89.8938 151.5,84.5 Z"/></g>
<g><path style="opacity:1" fill="#c2c1c1" d="M 234.5,84.5 C 236.716,84.2746 238.383,85.1079 239.5,87C 235.142,90.7271 233.476,89.8938 234.5,84.5 Z"/></g>
<g><path style="opacity:1" fill="#c0bcba" d="M 93.5,97.5 C 92.8826,97.6107 92.3826,97.944 92,98.5C 91.5008,103.155 91.3342,107.821 91.5,112.5C 90.1667,112.5 88.8333,112.5 87.5,112.5C 87.6659,107.489 87.4993,102.489 87,97.5C 85.1722,96.2475 83.3388,96.2475 81.5,97.5C 80.8826,97.6107 80.3826,97.944 80,98.5C 79.5008,103.155 79.3342,107.821 79.5,112.5C 78.1667,112.5 76.8333,112.5 75.5,112.5C 75.5,106.167 75.5,99.8333 75.5,93.5C 77.4672,93.2606 79.3005,93.5939 81,94.5C 84.6068,91.7312 87.9401,92.0645 91,95.5C 96.1591,91.0418 100.492,91.7085 104,97.5C 104.499,102.489 104.666,107.489 104.5,112.5C 102.833,112.5 101.167,112.5 99.5,112.5C 99.6659,107.489 99.4993,102.489 99,97.5C 97.1722,96.2475 95.3388,96.2475 93.5,97.5 Z"/></g>
<g><path style="opacity:1" fill="#c0bfbf" d="M 114.5,92.5 C 122.654,92.3223 126.321,96.3223 125.5,104.5C 121.116,104.174 116.783,104.508 112.5,105.5C 113.04,106.748 113.707,107.915 114.5,109C 117.868,109.543 121.201,109.376 124.5,108.5C 124.67,109.822 124.337,110.989 123.5,112C 109.19,114.683 104.69,109.183 110,95.5C 111.652,94.6006 113.152,93.6006 114.5,92.5 Z M 114.5,96.5 C 118.241,95.5985 120.241,96.9319 120.5,100.5C 117.813,100.664 115.146,100.497 112.5,100C 113.305,98.8873 113.972,97.7206 114.5,96.5 Z"/></g>
<g><path style="opacity:1" fill="#c7c4c0" d="M 142.5,84.5 C 142.717,89.2303 142.383,93.8969 141.5,98.5C 142.82,101.899 142.82,105.399 141.5,109C 142.973,109.71 143.64,110.876 143.5,112.5C 142.504,112.586 141.671,112.252 141,111.5C 133.051,114.937 128.551,112.27 127.5,103.5C 127.857,94.7963 132.19,91.463 140.5,93.5C 141.167,90.3583 141.834,87.3583 142.5,84.5 Z M 141.5,98.5 C 141.665,101.518 141.498,104.518 141,107.5C 135.611,111.076 132.778,109.576 132.5,103C 133.195,96.6522 136.195,95.1522 141.5,98.5 Z"/></g>
<g><path style="opacity:1" fill="#bfbebe" d="M 150.5,93.5 C 152.167,93.5 153.833,93.5 155.5,93.5C 155.5,99.8333 155.5,106.167 155.5,112.5C 153.833,112.5 152.167,112.5 150.5,112.5C 150.5,106.167 150.5,99.8333 150.5,93.5 Z"/></g>
<g><path style="opacity:1" fill="#c1c0c1" d="M 166.5,92.5 C 169.206,92.5751 171.873,92.9084 174.5,93.5C 174.5,94.8333 174.5,96.1667 174.5,97.5C 164.505,95.4935 161.505,99.1601 165.5,108.5C 168.474,109.577 171.474,109.577 174.5,108.5C 174.208,112.004 172.208,113.671 168.5,113.5C 160.138,112.458 156.971,107.792 159,99.5C 160.767,96.228 163.267,93.8947 166.5,92.5 Z"/></g>
<g><path style="opacity:1" fill="#bebdbe" d="M 182.5,92.5 C 186.115,92.2055 189.282,93.2055 192,95.5C 193.289,101.088 193.789,106.755 193.5,112.5C 191.533,112.739 189.699,112.406 188,111.5C 184.064,114.314 180.397,113.981 177,110.5C 175.877,107.044 176.71,104.21 179.5,102C 182.5,101.167 185.5,100.333 188.5,99.5C 185.982,95.8444 182.982,95.5111 179.5,98.5C 177.86,95.1469 178.86,93.1469 182.5,92.5 Z M 184.5,103.5 C 185.833,103.5 187.167,103.5 188.5,103.5C 188.627,108.373 186.294,110.373 181.5,109.5C 181.5,107.833 181.5,106.167 181.5,104.5C 182.791,104.737 183.791,104.404 184.5,103.5 Z"/></g>
<g><path style="opacity:1" fill="#bfbdbe" d="M 213.5,93.5 C 215.167,93.5 216.833,93.5 218.5,93.5C 219.421,98.0138 220.921,102.347 223,106.5C 224.333,102.5 225.667,98.5 227,94.5C 228.726,93.4238 230.559,93.2571 232.5,94C 229.739,100.018 227.406,106.185 225.5,112.5C 223.5,112.5 221.5,112.5 219.5,112.5C 217.5,106.167 215.5,99.8333 213.5,93.5 Z"/></g>
<g><path style="opacity:1" fill="#bfbebe" d="M 233.5,93.5 C 235.167,93.5 236.833,93.5 238.5,93.5C 238.5,99.8333 238.5,106.167 238.5,112.5C 236.833,112.5 235.167,112.5 233.5,112.5C 233.5,106.167 233.5,99.8333 233.5,93.5 Z"/></g>
<g><path style="opacity:1" fill="#c0bfbf" d="M 248.5,92.5 C 256.654,92.3223 260.321,96.3223 259.5,104.5C 255.116,104.174 250.783,104.508 246.5,105.5C 247.04,106.748 247.707,107.915 248.5,109C 251.868,109.543 255.201,109.376 258.5,108.5C 258.67,109.822 258.337,110.989 257.5,112C 243.19,114.683 238.69,109.183 244,95.5C 245.652,94.6006 247.152,93.6006 248.5,92.5 Z M 248.5,96.5 C 252.241,95.5985 254.241,96.9319 254.5,100.5C 251.813,100.664 249.146,100.497 246.5,100C 247.305,98.8873 247.972,97.7206 248.5,96.5 Z"/></g>
<g><path style="opacity:1" fill="#bfbebf" d="M 260.5,93.5 C 262.167,93.5 263.833,93.5 265.5,93.5C 267.015,107.33 269.182,107.663 272,94.5C 273.667,93.1667 275.333,93.1667 277,94.5C 279.546,107.53 281.712,107.197 283.5,93.5C 285.288,93.2148 286.955,93.5481 288.5,94.5C 286.513,100.113 284.68,105.78 283,111.5C 281.301,112.406 279.467,112.739 277.5,112.5C 276.825,108.643 275.658,104.977 274,101.5C 273.202,104.893 272.202,108.226 271,111.5C 269.301,112.406 267.467,112.739 265.5,112.5C 263.677,106.21 262.011,99.8765 260.5,93.5 Z"/></g>
<g><path style="opacity:1" fill="#c0bfbf" d="M 296.5,92.5 C 304.654,92.3223 308.321,96.3223 307.5,104.5C 303.116,104.174 298.783,104.508 294.5,105.5C 295.04,106.748 295.707,107.915 296.5,109C 299.868,109.543 303.201,109.376 306.5,108.5C 306.67,109.822 306.337,110.989 305.5,112C 291.19,114.683 286.69,109.183 292,95.5C 293.652,94.6006 295.152,93.6006 296.5,92.5 Z M 296.5,96.5 C 300.241,95.5985 302.241,96.9319 302.5,100.5C 299.813,100.664 297.146,100.497 294.5,100C 295.305,98.8873 295.972,97.7206 296.5,96.5 Z"/></g>
<g><path style="opacity:1" fill="#bebdbd" d="M 318.5,92.5 C 322.252,92.5007 323.252,94.1674 321.5,97.5C 319.091,96.2781 317.258,96.9447 316,99.5C 315.501,103.821 315.334,108.154 315.5,112.5C 313.833,112.5 312.167,112.5 310.5,112.5C 310.5,106.167 310.5,99.8333 310.5,93.5C 312.467,93.2606 314.301,93.5939 316,94.5C 316.995,93.9341 317.828,93.2674 318.5,92.5 Z"/></g>
<g><path style="opacity:1" fill="#c3e0fb" d="M 81.5,97.5 C 80.9322,102.637 80.2656,107.637 79.5,112.5C 79.3342,107.821 79.5008,103.155 80,98.5C 80.3826,97.944 80.8826,97.6107 81.5,97.5 Z"/></g>
<g><path style="opacity:1" fill="#c3e0fb" d="M 93.5,97.5 C 92.9322,102.637 92.2656,107.637 91.5,112.5C 91.3342,107.821 91.5008,103.155 92,98.5C 92.3826,97.944 92.8826,97.6107 93.5,97.5 Z"/></g>
</svg>
