<svg version="1.1" id="Layer_1" xmlns="http://www.w3.org/2000/svg" xmlns:xlink="http://www.w3.org/1999/xlink" x="0px" y="0px"
	 width="100%" viewBox="0 0 218 218" enable-background="new 0 0 218 218" xml:space="preserve">
<path fill="none" opacity="0" stroke="none"
	  d="
M219.000000,80.000000 
	C219.000000,126.666664 219.000000,172.833328 219.000000,219.000000 
	C146.333328,219.000000 73.666664,219.000000 1.000000,219.000000 
	C1.000000,146.333328 1.000000,73.666664 1.000000,1.000000 
	C73.666664,1.000000 146.333328,1.000000 219.000000,1.000000 
	C219.000000,27.166666 219.000000,53.333332 219.000000,80.000000 
M142.444153,125.964424 
	C140.662064,124.833275 138.938644,123.593689 137.086594,122.591881 
	C132.092972,119.890739 131.160095,120.505310 130.975235,126.028366 
	C130.759644,132.469284 130.795975,138.962372 129.952209,145.330704 
	C126.925781,168.173065 107.130585,179.748840 87.568443,180.887222 
	C67.932579,182.029877 50.902763,174.577667 35.463253,162.977997 
	C31.301353,159.851181 27.103405,156.772354 22.921999,153.671494 
	C28.666189,167.416977 38.027386,177.787857 49.180080,186.694412 
	C64.785133,199.156586 82.711327,206.136505 102.408310,207.861191 
	C123.076569,209.670929 142.899399,205.788956 161.310150,195.870087 
	C162.484055,195.237656 163.483749,193.745361 163.956329,192.433945 
	C167.258667,183.269882 167.614914,173.674500 166.827820,164.163330 
	C166.412445,159.143814 164.835617,153.986115 162.703384,149.391983 
	C158.338043,139.986389 151.143723,132.742905 142.444153,125.964424 
M10.000019,105.510956 
	C9.578189,116.766731 11.685002,127.664871 15.105331,138.289932 
	C15.931754,140.857178 17.685686,143.728043 19.866493,145.155640 
	C30.875895,152.362549 41.725845,160.029022 53.466621,165.850433 
	C69.763077,173.930679 87.041168,175.685303 104.637230,169.125717 
	C115.984077,164.895767 125.634987,149.779510 123.938026,138.000046 
	C123.526917,135.146347 122.232040,132.829971 118.568710,134.807098 
	C107.329369,140.873077 95.441605,141.740540 82.909950,140.139816 
	C70.245209,138.522110 59.813530,132.642273 51.541485,123.732285 
	C39.712654,110.991241 30.888477,96.134712 25.703020,79.339172 
	C24.108212,74.173653 22.443123,69.029823 20.810215,63.876064 
	C20.275803,63.892223 19.741392,63.908379 19.206980,63.924534 
	C12.804272,76.632027 10.167216,90.275375 10.000019,105.510956 
M34.066479,78.160995 
	C34.372997,78.914650 34.801552,79.642509 34.967167,80.425949 
	C36.630352,88.293510 41.078094,92.344925 48.872440,91.922615 
	C62.163048,91.202515 75.543030,90.773018 88.675537,88.814095 
	C108.118988,85.913780 125.568848,77.491592 141.388199,65.978111 
	C149.322937,60.203140 156.890106,53.854721 164.157013,47.252216 
	C169.989182,41.953278 175.118515,35.880764 181.531174,29.128662 
	C172.244812,23.450287 164.289108,18.405685 156.085617,13.802695 
	C155.088074,13.242960 152.024338,14.566278 151.157913,15.852202 
	C143.047455,27.889513 133.874557,38.799969 122.088730,47.538715 
	C108.020920,57.969482 92.904945,66.054291 75.546288,68.889778 
	C63.451679,70.865387 51.171764,71.727547 38.961884,72.960930 
	C36.095413,73.250488 33.587215,73.500572 34.066479,78.160995 
M176.995819,78.505341 
	C183.685349,70.813293 190.440933,63.176628 196.989670,55.366512 
	C197.918961,54.258202 198.701385,51.692413 198.094330,50.843613 
	C193.671860,44.660137 188.876251,38.743538 183.874313,32.326683 
	C175.073273,48.487232 162.362549,59.571316 149.168243,69.777611 
	C131.364120,83.549782 111.052315,92.826225 88.940506,97.393501 
	C78.399277,99.570831 67.657616,101.052284 56.696079,99.222229 
	C52.999748,98.605110 48.607765,97.668915 44.841064,100.523087 
	C46.065403,103.081100 46.821503,105.488205 48.226582,107.424332 
	C51.158981,111.465027 53.517887,116.740669 59.398571,116.918549 
	C77.211967,117.457352 95.016304,117.153770 112.473351,112.957634 
	C136.702713,107.133629 158.351044,96.351509 176.995819,78.505341 
M140.509781,19.012836 
	C142.511139,15.991254 144.512482,12.969672 147.068787,9.110254 
	C138.282532,7.266037 130.700516,5.593362 123.069954,4.183341 
	C122.189369,4.020620 120.635635,5.070499 120.075264,5.978580 
	C113.998573,15.825756 105.728264,23.641682 96.744591,30.645834 
	C83.249382,41.167419 67.872627,46.858902 50.620056,46.992390 
	C44.458187,47.040066 38.293621,47.094337 32.134296,46.960743 
	C29.189417,46.896870 27.425060,47.928722 28.060347,50.962936 
	C28.976892,55.340477 30.266663,59.641788 31.453615,63.960114 
	C32.214809,66.729469 34.245136,67.279350 36.838654,67.019012 
	C44.019176,66.298225 51.238110,65.892838 58.389206,64.959373 
	C76.363495,62.613117 93.179420,56.919895 108.554810,47.142521 
	C120.476440,39.561432 131.756851,31.289085 140.509781,19.012836 
M155.587036,112.999977 
	C152.836945,113.330185 150.055817,113.506378 147.349075,114.051712 
	C145.864456,114.350822 144.505280,115.272629 143.089539,115.913651 
	C144.128738,117.185814 145.066208,118.562210 146.234467,119.702095 
	C147.514328,120.950905 149.078842,121.903801 150.395660,123.119598 
	C159.015961,131.078598 166.514618,139.867981 171.046875,150.887253 
	C176.142166,163.275421 175.157516,175.857666 171.981812,189.123291 
	C187.146240,177.456009 198.614365,163.768951 205.974289,146.811539 
	C206.573776,145.430298 207.098145,143.403168 206.525925,142.226364 
	C202.861694,134.690689 198.540100,127.640724 191.375671,122.716049 
	C180.836838,115.471870 168.984055,113.242126 155.587036,112.999977 
M213.998001,95.796822 
	C212.257721,82.733910 209.064423,70.122871 202.554337,58.309254 
	C191.647430,77.491096 174.892548,90.512260 156.844696,103.237488 
	C168.017395,106.388657 178.303940,108.234093 187.678070,112.223495 
	C197.531754,116.417015 204.249985,125.086037 210.499527,133.769226 
	C211.094482,133.680679 211.689438,133.592133 212.284378,133.503586 
	C212.856064,121.250465 213.427750,108.997360 213.998001,95.796822 
M44.022362,29.469746 
	C40.724270,32.702991 37.426178,35.936237 34.015968,39.279396 
	C53.349224,49.139568 102.863716,26.553988 111.765099,3.966077 
	C86.023232,3.748669 63.902504,12.607768 44.022362,29.469746 
M80.878387,123.925934 
	C78.288849,123.617630 75.662331,122.906357 73.122452,123.139359 
	C71.359917,123.301056 69.716614,124.762489 68.020035,125.643211 
	C69.163857,127.024109 70.028328,129.004959 71.496758,129.688705 
	C81.130768,134.174530 91.505463,134.901306 101.793587,133.763702 
	C108.401581,133.033020 114.705345,130.125534 118.891975,124.423889 
	C119.946808,122.987350 119.872055,120.721367 120.316399,118.836555 
	C118.462929,118.549316 116.364372,117.549820 114.795502,118.089668 
	C104.086159,121.774750 93.324059,124.884537 80.878387,123.925934 
z"/>
<path fill="#F08200" opacity="1.000000" stroke="none" 
	d="
M142.709717,126.215546 
	C151.143723,132.742905 158.338043,139.986389 162.703384,149.391983 
	C164.835617,153.986115 166.412445,159.143814 166.827820,164.163330 
	C167.614914,173.674500 167.258667,183.269882 163.956329,192.433945 
	C163.483749,193.745361 162.484055,195.237656 161.310150,195.870087 
	C142.899399,205.788956 123.076569,209.670929 102.408310,207.861191 
	C82.711327,206.136505 64.785133,199.156586 49.180080,186.694412 
	C38.027386,177.787857 28.666189,167.416977 22.921999,153.671494 
	C27.103405,156.772354 31.301353,159.851181 35.463253,162.977997 
	C50.902763,174.577667 67.932579,182.029877 87.568443,180.887222 
	C107.130585,179.748840 126.925781,168.173065 129.952209,145.330704 
	C130.795975,138.962372 130.759644,132.469284 130.975235,126.028366 
	C131.160095,120.505310 132.092972,119.890739 137.086594,122.591881 
	C138.938644,123.593689 140.662064,124.833275 142.709717,126.215546 
z"/>
<path fill="#F08200" opacity="1.000000" stroke="none" 
	d="
M10.000059,105.021759 
	C10.167216,90.275375 12.804272,76.632027 19.206980,63.924534 
	C19.741392,63.908379 20.275803,63.892223 20.810215,63.876064 
	C22.443123,69.029823 24.108212,74.173653 25.703020,79.339172 
	C30.888477,96.134712 39.712654,110.991241 51.541485,123.732285 
	C59.813530,132.642273 70.245209,138.522110 82.909950,140.139816 
	C95.441605,141.740540 107.329369,140.873077 118.568710,134.807098 
	C122.232040,132.829971 123.526917,135.146347 123.938026,138.000046 
	C125.634987,149.779510 115.984077,164.895767 104.637230,169.125717 
	C87.041168,175.685303 69.763077,173.930679 53.466621,165.850433 
	C41.725845,160.029022 30.875895,152.362549 19.866493,145.155640 
	C17.685686,143.728043 15.931754,140.857178 15.105331,138.289932 
	C11.685002,127.664871 9.578189,116.766731 10.000059,105.021759 
z"/>
<path fill="#F08200" opacity="1.000000" stroke="none" 
	d="
M34.038826,77.741112 
	C33.587215,73.500572 36.095413,73.250488 38.961884,72.960930 
	C51.171764,71.727547 63.451679,70.865387 75.546288,68.889778 
	C92.904945,66.054291 108.020920,57.969482 122.088730,47.538715 
	C133.874557,38.799969 143.047455,27.889513 151.157913,15.852202 
	C152.024338,14.566278 155.088074,13.242960 156.085617,13.802695 
	C164.289108,18.405685 172.244812,23.450287 181.531174,29.128662 
	C175.118515,35.880764 169.989182,41.953278 164.157013,47.252216 
	C156.890106,53.854721 149.322937,60.203140 141.388199,65.978111 
	C125.568848,77.491592 108.118988,85.913780 88.675537,88.814095 
	C75.543030,90.773018 62.163048,91.202515 48.872440,91.922615 
	C41.078094,92.344925 36.630352,88.293510 34.967167,80.425949 
	C34.801552,79.642509 34.372997,78.914650 34.038826,77.741112 
z"/>
<path fill="#F08200" opacity="1.000000" stroke="none" 
	d="
M176.744446,78.754959 
	C158.351044,96.351509 136.702713,107.133629 112.473351,112.957634 
	C95.016304,117.153770 77.211967,117.457352 59.398571,116.918549 
	C53.517887,116.740669 51.158981,111.465027 48.226582,107.424332 
	C46.821503,105.488205 46.065403,103.081100 44.841064,100.523087 
	C48.607765,97.668915 52.999748,98.605110 56.696079,99.222229 
	C67.657616,101.052284 78.399277,99.570831 88.940506,97.393501 
	C111.052315,92.826225 131.364120,83.549782 149.168243,69.777611 
	C162.362549,59.571316 175.073273,48.487232 183.874313,32.326683 
	C188.876251,38.743538 193.671860,44.660137 198.094330,50.843613 
	C198.701385,51.692413 197.918961,54.258202 196.989670,55.366512 
	C190.440933,63.176628 183.685349,70.813293 176.744446,78.754959 
z"/>
<path fill="#F08200" opacity="1.000000" stroke="none" 
	d="
M140.291214,19.307135 
	C131.756851,31.289085 120.476440,39.561432 108.554810,47.142521 
	C93.179420,56.919895 76.363495,62.613117 58.389206,64.959373 
	C51.238110,65.892838 44.019176,66.298225 36.838654,67.019012 
	C34.245136,67.279350 32.214809,66.729469 31.453615,63.960114 
	C30.266663,59.641788 28.976892,55.340477 28.060347,50.962936 
	C27.425060,47.928722 29.189417,46.896870 32.134296,46.960743 
	C38.293621,47.094337 44.458187,47.040066 50.620056,46.992390 
	C67.872627,46.858902 83.249382,41.167419 96.744591,30.645834 
	C105.728264,23.641682 113.998573,15.825756 120.075264,5.978580 
	C120.635635,5.070499 122.189369,4.020620 123.069954,4.183341 
	C130.700516,5.593362 138.282532,7.266037 147.068787,9.110254 
	C144.512482,12.969672 142.511139,15.991254 140.291214,19.307135 
z"/>
<path fill="#F08200" opacity="1.000000" stroke="none" 
	d="
M156.061691,112.999969 
	C168.984055,113.242126 180.836838,115.471870 191.375671,122.716049 
	C198.540100,127.640724 202.861694,134.690689 206.525925,142.226364 
	C207.098145,143.403168 206.573776,145.430298 205.974289,146.811539 
	C198.614365,163.768951 187.146240,177.456009 171.981812,189.123291 
	C175.157516,175.857666 176.142166,163.275421 171.046875,150.887253 
	C166.514618,139.867981 159.015961,131.078598 150.395660,123.119598 
	C149.078842,121.903801 147.514328,120.950905 146.234467,119.702095 
	C145.066208,118.562210 144.128738,117.185814 143.089539,115.913651 
	C144.505280,115.272629 145.864456,114.350822 147.349075,114.051712 
	C150.055817,113.506378 152.836945,113.330185 156.061691,112.999969 
z"/>
<path fill="#F08200" opacity="1.000000" stroke="none" 
	d="
M213.998718,96.270538 
	C213.427750,108.997360 212.856064,121.250465 212.284378,133.503586 
	C211.689438,133.592133 211.094482,133.680679 210.499527,133.769226 
	C204.249985,125.086037 197.531754,116.417015 187.678070,112.223495 
	C178.303940,108.234093 168.017395,106.388657 156.844696,103.237488 
	C174.892548,90.512260 191.647430,77.491096 202.554337,58.309254 
	C209.064423,70.122871 212.257721,82.733910 213.998718,96.270538 
z"/>
<path fill="#F08200" opacity="1.000000" stroke="none" 
	d="
M44.280163,29.221672 
	C63.902504,12.607768 86.023232,3.748669 111.765099,3.966077 
	C102.863716,26.553988 53.349224,49.139568 34.015968,39.279396 
	C37.426178,35.936237 40.724270,32.702991 44.280163,29.221672 
z"/>
<path fill="#F08200" opacity="1.000000" stroke="none" 
	d="
M81.346107,123.957230 
	C93.324059,124.884537 104.086159,121.774750 114.795502,118.089668 
	C116.364372,117.549820 118.462929,118.549316 120.316399,118.836555 
	C119.872055,120.721367 119.946808,122.987350 118.891975,124.423889 
	C114.705345,130.125534 108.401581,133.033020 101.793587,133.763702 
	C91.505463,134.901306 81.130768,134.174530 71.496758,129.688705 
	C70.028328,129.004959 69.163857,127.024109 68.020035,125.643211 
	C69.716614,124.762489 71.359917,123.301056 73.122452,123.139359 
	C75.662331,122.906357 78.288849,123.617630 81.346107,123.957230 
z"/>
</svg>